<svg id="eqAanNQivuf1" xmlns="http://www.w3.org/2000/svg" xmlns:xlink="http://www.w3.org/1999/xlink" viewBox="0 0 1920 1080" shape-rendering="geometricPrecision" text-rendering="geometricPrecision"><ellipse rx="428.905682" ry="428.905682" transform="translate(585.774344 540)" fill="rgba(210,219,237,0)" stroke="#000"/><ellipse rx="428.905682" ry="428.905682" transform="translate(1091.552569 540)" fill="rgba(210,219,237,0)" stroke="#000"/><path d="M757.460045,270.468905l36.618941-40.542399l45.773675-36.61894l41.850218,35.31112l30.079844,34.003301l34.003302,43.158037L971.942411,351.5537l20.925109,51.004953l13.078192,41.850217l8.734311,52.312772.420424,69.314424-7.846916,54.928411-13.078193,56.236231L970.63459,729.51348l-30.079844,52.312773-35.311122,47.081495-44.465856,40.542399-23.540748,17.00165-48.389315-41.850218-54.928411-65.390966-37.926761-71.930062-26.156386-95.47081-7.846916-61.467508.657652-51.004953l11.112722-65.390966l20.925109-57.544049l18.30947-40.542399l20.925109-32.695483l23.540752-32.695478Z" transform="translate(.000004 0.000005)" fill="rgba(0,0,0,0)" stroke-width="3.84"/></svg>
